<?xml version="1.0" encoding="UTF-8"?>
<svg xmlns="http://www.w3.org/2000/svg" xmlns:xlink="http://www.w3.org/1999/xlink" width="67px" height="50px" viewBox="0 0 67 50" version="1.1">
<defs>
<linearGradient id="linear0" gradientUnits="userSpaceOnUse" x1="0" y1="-10" x2="0.000000000000001225" y2="10" gradientTransform="matrix(1.883482,0,0,1.874111,33.5,25)">
<stop offset="0" style="stop-color:rgb(97.647059%,82.352941%,18.823529%);stop-opacity:1;"/>
<stop offset="1" style="stop-color:rgb(94.117647%,72.54902%,4.705882%);stop-opacity:1;"/>
</linearGradient>
</defs>
<g id="surface1">
<path style=" stroke:none;fill-rule:nonzero;fill:url(#linear0);" d="M 27.097656 14.128906 L 23.515625 12.070312 L 33.5 6.257812 L 43.484375 12.070312 L 39.902344 14.128906 L 33.5 10.570312 Z M 46.121094 17.691406 L 46.121094 22 L 49.699219 19.941406 L 49.699219 15.628906 L 46.121094 13.566406 L 42.539062 15.628906 C 42.539062 15.628906 46.121094 17.691406 46.121094 17.691406 Z M 29.921875 15.628906 L 33.5 17.691406 L 37.078125 15.628906 L 33.5 13.566406 C 33.5 13.566406 29.921875 15.628906 29.921875 15.628906 Z M 43.484375 19.191406 L 39.902344 17.128906 L 33.5 20.691406 L 27.097656 17.128906 L 23.515625 19.191406 L 23.515625 23.5 L 29.921875 27.0625 L 29.921875 34.371094 L 33.5 36.433594 L 37.078125 34.371094 L 37.078125 27.0625 L 43.484375 23.5 Z M 46.121094 32.308594 L 39.902344 35.871094 L 39.902344 40.179688 L 49.886719 34.371094 L 49.886719 22.9375 L 46.121094 25 C 46.121094 25 46.121094 32.308594 46.121094 32.308594 Z M 39.902344 32.871094 L 43.484375 30.808594 L 43.484375 26.5 L 39.902344 28.5625 Z M 29.921875 37.367188 L 29.921875 41.679688 L 33.5 43.742188 L 37.078125 41.679688 L 37.078125 37.367188 L 33.5 39.429688 Z M 17.113281 19.941406 L 20.691406 22 L 20.691406 17.691406 L 24.460938 15.628906 L 20.878906 13.566406 L 17.113281 15.628906 Z M 20.878906 25 L 17.300781 22.9375 L 17.300781 34.371094 L 27.285156 40.179688 L 27.285156 35.871094 L 20.878906 32.308594 C 20.878906 32.308594 20.878906 25 20.878906 25 Z M 27.097656 28.5625 L 23.515625 26.5 L 23.515625 30.808594 L 27.097656 32.871094 C 27.097656 32.871094 27.097656 28.5625 27.097656 28.5625 Z M 27.097656 28.5625 "/>
</g>
</svg>
